<svg width="866" height="478" viewBox="0 0 866 478" fill="none" xmlns="http://www.w3.org/2000/svg">
<path d="M813 194L810.5 198.5M813 194C813 194 823.833 181.086 825.5 171C826.799 163.139 823.436 151.521 822.335 148.029C822.159 147.472 822.485 146.876 823.051 146.731L862.435 136.656C863.328 136.428 863.474 135.206 862.661 134.773C858.31 132.457 848.334 126.992 836.5 119.5C815.189 106.008 786.604 86.7299 762 75C732.752 61.0563 707.288 61.1701 682 53C649.5 42.5 632.241 23.1723 594.5 13.5C495 -12 412 7.49998 319 47C237.652 81.5509 182 130 158 194C152.75 208 103.71 199.798 75 215C32.0195 237.758 17.382 266.256 5.99995 311C-3.58501 348.68 12.45 409.921 12.9862 411.948C13.0032 412.012 12.9974 411.995 13.0271 412.054C13.9608 413.923 38.8862 463.335 69 475C90 483.134 31.7406 358.889 69 303C103 252 164 272 164 272M813 194C813 194 824.863 198.472 831.5 203C835.607 205.802 840.632 210.616 843.24 213.214C843.881 213.852 843.396 214.973 842.492 214.992C839.642 215.052 834.421 215.343 827.115 216.482C827.04 216.494 826.966 216.514 826.895 216.543C808.379 224.011 776.467 227 759 227C725.769 227 706.5 234.5 674 231M674 231C674 227.485 674 222 674 222M674 231C676.66 249.818 675.707 261.372 670 279.5C664.378 297.358 646 321 646 321M646 321C646 321 647.809 347.782 636 355C629.096 359.22 626.043 360.349 615.5 358C607.5 356.218 599.499 329.222 589 311C580.772 296.72 572 284.883 560.5 279.5C537 268.5 499 302 458.5 323.5C447.987 329.081 431.719 330.6 421.215 330.965C420.006 331.007 419.666 333.418 420.821 333.775C434.754 338.083 460.005 347.333 473 361C489.128 377.962 512.5 405 499 415C493.558 419.031 483.81 417.685 477.92 416.341C476.85 416.097 475.957 417.688 476.751 418.445C483.951 425.306 499 440.968 499 452C499 464.692 486.807 475.366 473 471.5C463.427 468.82 457.548 457.075 449 452C417 433 334 424 322 415C312.003 407.502 320.864 387.672 311 380C302 373 256.05 370.756 225 349C193.582 326.986 164 272 164 272M646 321L629 288M164 272L174 269.5M629 288C629 288 629 251.5 622 247C614.359 242.088 604.31 243.541 601 252C596.5 263.5 629 288 629 288Z" stroke="#414141" stroke-width="4" stroke-linecap="round" stroke-linejoin="round"/>
<ellipse cx="771" cy="150.5" rx="5" ry="5.5" fill="#414141" fill-opacity="0.6"/>
<path d="M775 150.5C775 153.077 773.122 155 771 155C768.878 155 767 153.077 767 150.5C767 147.923 768.878 146 771 146C773.122 146 775 147.923 775 150.5Z" stroke="#414141" stroke-opacity="0.8" stroke-width="2" stroke-linecap="round" stroke-linejoin="round"/>
<path d="M769 149.5C768.534 151.406 770.157 154.5 768.5 154.5C766.843 154.5 766 152.485 766 150C766 147.515 768.843 145.5 770.5 145.5C772.157 145.5 769.396 147.879 769 149.5Z" fill="#414141" fill-opacity="0.8"/>
<path d="M768.029 149.263C767.87 149.911 767.9 150.601 767.964 151.194C768.004 151.557 768.069 151.967 768.126 152.326C768.157 152.522 768.185 152.703 768.206 152.852C768.244 153.128 768.261 153.327 768.264 153.468C768.009 153.395 767.755 153.186 767.518 152.725C767.198 152.102 767 151.151 767 150C767 149.144 767.5 148.269 768.292 147.566C768.637 147.261 768.997 147.022 769.335 146.849C769.154 147.111 768.954 147.399 768.792 147.652C768.495 148.116 768.169 148.686 768.029 149.263ZM770.55 146.503C770.55 146.503 770.545 146.503 770.535 146.501C770.546 146.502 770.551 146.503 770.55 146.503Z" stroke="#414141" stroke-opacity="0.8" stroke-width="2" stroke-linecap="round" stroke-linejoin="round"/>
<ellipse cx="769" cy="190" rx="5" ry="6" fill="#414141" fill-opacity="0.6"/>
<path d="M773 190C773 192.94 771.046 195 769 195C766.954 195 765 192.94 765 190C765 187.06 766.954 185 769 185C771.046 185 773 187.06 773 190Z" stroke="#414141" stroke-opacity="0.8" stroke-width="2" stroke-linecap="round" stroke-linejoin="round"/>
<path d="M767 188.5C766.534 190.406 768.657 194.5 767 194.5C765.343 194.5 764.5 191.485 764.5 189C764.5 186.515 766.843 184.5 768.5 184.5C770.157 184.5 767.396 186.879 767 188.5Z" fill="#414141" fill-opacity="0.8"/>
<path d="M766.029 188.263C765.861 188.949 765.939 189.735 766.05 190.405C766.129 190.883 766.243 191.4 766.347 191.867C766.39 192.062 766.432 192.249 766.468 192.421C766.542 192.774 766.593 193.06 766.62 193.286C766.435 193.092 766.238 192.772 766.06 192.317C765.698 191.395 765.5 190.15 765.5 189C765.5 188.075 765.94 187.189 766.595 186.516C766.812 186.293 767.036 186.109 767.257 185.962C767.098 186.192 766.931 186.435 766.792 186.652C766.495 187.116 766.169 187.686 766.029 188.263ZM766.63 193.785C766.63 193.785 766.63 193.783 766.631 193.78C766.63 193.784 766.63 193.785 766.63 193.785ZM768.55 185.503C768.55 185.503 768.545 185.503 768.535 185.501C768.546 185.502 768.551 185.503 768.55 185.503Z" stroke="#414141" stroke-opacity="0.8" stroke-width="2" stroke-linecap="round" stroke-linejoin="round"/>
<path d="M756 171.5C756 174.538 752.761 177 750 177C747.239 177 745 174.538 745 171.5C745 168.462 747.239 166 750 166C752.761 166 756 168.462 756 171.5Z" fill="#414141" fill-opacity="0.9"/>
<path d="M755 171.5C755 172.652 754.382 173.77 753.383 174.632C752.38 175.496 751.104 176 750 176C747.878 176 746 174.077 746 171.5C746 168.923 747.878 167 750 167C751.104 167 752.38 167.504 753.383 168.368C754.382 169.23 755 170.348 755 171.5Z" stroke="#414141" stroke-opacity="0.8" stroke-width="2" stroke-linecap="round" stroke-linejoin="round"/>
<path d="M747.5 169.5C746.767 172.5 750.157 175.5 748.5 175.5C746.843 175.5 745.5 173.485 745.5 171C745.5 168.515 748.343 166.5 750 166.5C751 167 747.896 167.879 747.5 169.5Z" fill="#414141" fill-opacity="0.6"/>
<path d="M747.211 173.627C746.877 173.127 746.624 172.438 746.535 171.637C746.711 172.444 747.022 173.17 747.296 173.749C747.267 173.71 747.239 173.67 747.211 173.627ZM747.967 175.221C747.967 175.221 747.965 175.215 747.964 175.205C747.967 175.216 747.967 175.222 747.967 175.221ZM748.512 174.5C748.521 174.499 748.525 174.499 748.526 174.499C748.526 174.499 748.522 174.5 748.512 174.5Z" stroke="#414141" stroke-opacity="0.8" stroke-width="2" stroke-linecap="round" stroke-linejoin="round"/>
</svg>
